<svg xmlns="http://www.w3.org/2000/svg" version="1.1" xmlns:xlink="http://www.w3.org/1999/xlink" xmlns:svgjs="http://svgjs.dev/svgjs" width="1000" height="750" viewBox="0 0 1000 750"><rect width="1000" height="750" fill="#000000"></rect><g transform="matrix(0.5191111111111111,0,0,0.5191111111111111,240.44444444444446,83)"><svg viewBox="0 0 320 360" data-background-color="#ffffff" preserveAspectRatio="xMidYMid meet" height="1125" width="1000" xmlns="http://www.w3.org/2000/svg" xmlns:xlink="http://www.w3.org/1999/xlink"><g id="tight-bounds" transform="matrix(1,0,0,1,0,0)"><svg viewBox="0 0 320 360" height="360" width="320"><g><svg></svg></g><g><svg viewBox="0 0 320 360" height="360" width="320"><g><path xmlns="http://www.w3.org/2000/svg" d="M320 187.111c0-45.764-20.238-86.866-52.203-114.908-28.043-31.964-69.145-52.203-114.908-52.203-84.302 0-152.889 68.587-152.889 152.889 0 45.753 20.231 86.848 52.185 114.891 28.043 31.975 69.152 52.22 114.926 52.22 0.299 0 0.59-0.021 0.889-0.021 0.299 0 0.59 0.021 0.889 0.021 83.456 0 151.111-67.655 151.111-151.111 0-0.299-0.021-0.59-0.021-0.889 0-0.299 0.021-0.59 0.021-0.889zM59.833 263.097c-15.093-21.255-24.071-47.143-24.256-75.097 0.48-72.928 59.492-131.943 132.423-132.423 27.954 0.185 53.845 9.163 75.097 24.256 24.366 23.627 39.57 56.64 39.57 93.056 0 71.559-58.219 129.778-129.778 129.778-36.416 0-69.429-15.204-93.056-39.57zM3.556 172.889c0-82.343 66.99-149.333 149.333-149.333 35.051 0 67.292 12.167 92.8 32.462-22.98-13.824-49.863-21.796-78.578-21.796-84.302 0-152.889 68.587-152.889 152.889 0 28.708 7.968 55.584 21.785 78.56-20.288-25.5-32.452-57.739-32.451-92.782zM167.111 318.667c-35.84 0-68.363-14.418-92.107-37.743 21.952 15.89 48.864 25.298 77.885 25.298 73.522 0 133.333-59.812 133.333-133.333 0-29.02-9.408-55.932-25.298-77.885 23.324 23.744 37.742 56.267 37.743 92.107 0 72.54-59.015 131.556-131.556 131.556z" fill="#ffffff" fill-rule="nonzero" stroke="none" stroke-width="1" stroke-linecap="butt" stroke-linejoin="miter" stroke-miterlimit="10" stroke-dasharray="" stroke-dashoffset="0" font-family="none" font-weight="none" font-size="none" text-anchor="none" style="mix-blend-mode: normal" data-fill-palette-color="tertiary"></path></g><g transform="matrix(1,0,0,1,64,120.28748890860692)"><svg viewBox="0 0 192 119.42502218278615" height="119.42502218278615" width="192"><g><svg viewBox="0 0 192 119.42502218278615" height="119.42502218278615" width="192"><g><svg viewBox="0 0 192 119.42502218278615" height="119.42502218278615" width="192"><g><svg viewBox="0 0 192 119.42502218278615" height="119.42502218278615" width="192"><g id="textblocktransform"><svg viewBox="0 0 192 119.42502218278615" height="119.42502218278615" width="192" id="textblock"><g><svg viewBox="0 0 192 119.42502218278615" height="119.42502218278615" width="192"><g transform="matrix(1,0,0,1,0,0)"><svg width="192" viewBox="1 -35 56.349998474121094 35.04999923706055" height="119.42502218278615" data-palette-color="#89939e"><path d="M21.7-34.95L31.45-35Q31.45-34.95 31.5-34.25L31.5-34.25 28.65-34 17.95-11.8 17.95-0.95 21.6-0.75Q21.6-0.7 21.55 0L21.55 0 11.55 0.05Q11.55-0.4 11.6-0.65L11.6-0.65 14.2-1Q14.7-1.05 14.8-1.65L14.8-1.65 14.8-11.8 3.55-33.75Q3.35-33.9 3.15-34L3.15-34 1.05-34.2Q1-34.5 1-34.95L1-34.95 11.1-35Q11.1-34.95 11.15-34.25L11.15-34.25 7.05-33.9 17.4-12.65 26.75-33.15Q26.75-33.75 26.3-33.8L26.3-33.8 21.75-34.2Q21.7-34.5 21.7-34.95L21.7-34.95ZM34.75-34.4L34.75-34.4 34.85-35 45.25-35Q51.4-35 54.37-32.9 57.35-30.8 57.35-24.98 57.35-19.15 54.27-16.38 51.2-13.6 45.25-13.6L45.25-13.6 41.4-13.6 41.4-0.95 44.85-0.75Q44.85-0.7 44.8 0L44.8 0 34.8 0.05Q34.8-0.4 34.85-0.65L34.85-0.65 37.45-1Q37.8-1.05 38-1.45L38-1.45 38-33.45Q37.8-33.9 37.45-33.95L37.45-33.95 34.8-34.25Q34.75-34.3 34.75-34.4ZM45-34.25L45-34.25 41.4-34.25 41.4-14.35 45-14.35Q49.5-14.35 51.72-16.75 53.95-19.15 53.95-24.78 53.95-30.4 51.75-32.33 49.55-34.25 45-34.25Z" opacity="1" transform="matrix(1,0,0,1,0,0)" fill="#ffffff" class="wordmark-text-0" data-fill-palette-color="primary" id="text-0"></path></svg></g></svg></g></svg></g></svg></g></svg></g></svg></g></svg></g></svg></g><defs></defs></svg><rect width="320" height="360" fill="none" stroke="none" visibility="hidden"></rect></g></svg></g></svg>